<?xml version="1.0" encoding="iso-8859-1"?>
<!-- Generator: Adobe Illustrator 19.0.0, SVG Export Plug-In . SVG Version: 6.00 Build 0)  -->
<svg version="1.1" id="Layer_1" xmlns="http://www.w3.org/2000/svg" xmlns:xlink="http://www.w3.org/1999/xlink" x="0px" y="0px"
	 viewBox="0 0 512 512" style="enable-background:new 0 0 512 512;" xml:space="preserve">
<g>
	<path style="fill:#3B8BC0;" d="M270.941,53.195c-4.209-9.905-16.383-18.01-27.055-18.01h-97.86
		c-10.672,0-23.001,8.035-27.398,17.857l-24.6,54.939l100.095,24.265l100.095-24.265L270.941,53.195z"/>
	<path style="fill:#3B8BC0;" d="M427.071,71.583h-24.265c-20.103,0-36.398,16.295-36.398,36.398l48.531,24.265l48.531-24.265
		C463.469,87.878,447.174,71.583,427.071,71.583z"/>
</g>
<path style="fill:#4EB9FF;" d="M48.531,107.981C21.839,107.981,0,129.82,0,156.512v271.773c0,26.692,21.839,48.531,48.531,48.531
	h414.938c26.692,0,48.531-21.839,48.531-48.531V156.512c0-26.692-21.839-48.531-48.531-48.531H48.531z"/>
<circle style="fill:#174461;" cx="194.123" cy="292.398" r="122.54"/>
<circle style="fill:#C2E7FF;" cx="194.123" cy="292.398" r="86.142"/>
<path style="fill:#FFFFFF;" d="M194.123,342.142c-27.428,0-49.744-22.316-49.744-49.744c0-27.428,22.316-49.744,49.744-49.744
	c6.7,0,12.133,5.433,12.133,12.133c0,6.7-5.433,12.133-12.133,12.133c-14.048,0-25.479,11.43-25.479,25.479
	c0,14.048,11.43,25.479,25.479,25.479s25.479-11.43,25.479-25.479c0-6.7,5.433-12.133,12.133-12.133s12.133,5.433,12.133,12.133
	C243.867,319.827,221.552,342.142,194.123,342.142z"/>
<rect x="366.408" y="156.512" style="fill:#FFD86C;" width="97.062" height="58.237"/>
<g>
</g>
<g>
</g>
<g>
</g>
<g>
</g>
<g>
</g>
<g>
</g>
<g>
</g>
<g>
</g>
<g>
</g>
<g>
</g>
<g>
</g>
<g>
</g>
<g>
</g>
<g>
</g>
<g>
</g>
</svg>
