<?xml version="1.0" encoding="utf-8"?>
<!-- Svg Vector Icons : http://www.onlinewebfonts.com/icon -->
<!DOCTYPE svg PUBLIC "-//W3C//DTD SVG 1.1//EN" "http://www.w3.org/Graphics/SVG/1.1/DTD/svg11.dtd">
<svg version="1.1" xmlns="http://www.w3.org/2000/svg" xmlns:xlink="http://www.w3.org/1999/xlink" x="0px" y="0px" viewBox="0 0 256 256" enable-background="new 0 0 256 256" xml:space="preserve">
<metadata> Svg Vector Icons : http://www.onlinewebfonts.com/icon </metadata>
<g><g><g><path fill="#000000" d="M129.6,46.2c-5,1.1-7.6,2.7-17.5,10.4l-9.4,7.3H66.6c-25.1,0-36.9,0.1-38.7,0.5c-8.2,1.8-15.5,8.9-17.3,17c-0.3,1.4-0.5,21.4-0.5,55.8c0,58-0.1,55.7,2.7,61.1c1.7,3.3,5.9,7.6,9.3,9.4c5.4,2.9,0.4,2.8,105.8,2.8c67.4,0,97.5-0.1,99.5-0.5c8.5-1.6,15.3-7.8,17.9-16.4c0.7-2.4,0.8-8.4,0.8-56.3c0-34.4-0.2-54.5-0.5-55.8c-0.9-4-2.9-7.5-6.2-10.7c-4.8-4.7-9.7-6.8-16.3-6.8h-3.3l-8.8-6.9c-9.9-7.8-13.3-9.8-18.1-10.8C188.1,45.2,134.2,45.2,129.6,46.2z M193,59.2c0.9,0.5,6.1,4.4,11.6,8.7c6.7,5.2,10.5,7.9,11.7,8.2c1,0.2,3.6,0.4,5.8,0.4c5.5,0,8.3,1.5,10.4,5.6l1.1,1.9v53.2v53.2l-1.4,2.3c-1.5,2.6-3.2,3.9-5.9,4.7c-1.5,0.4-26.8,0.5-99.6,0.4l-97.6-0.1l-2-1.3c-1.1-0.7-2.6-2.4-3.3-3.6l-1.4-2.3v-53.2V84.1l1.1-1.9c1.2-2.2,2.7-3.7,4.9-4.8c1.4-0.7,5.5-0.8,39.1-0.8c28.8,0,37.9-0.2,39.2-0.6c0.9-0.3,6.3-4.2,11.8-8.5c5.5-4.3,10.1-7.9,10.2-7.9s1-0.3,2-0.7c1.7-0.6,6.6-0.7,31.3-0.6C189.5,58.3,191.5,58.4,193,59.2z"/><path fill="#000000" d="M212.9,86c-1.8,1.2-3.4,4.1-3.4,6.3c0,0.6,0.5,2,1.1,3.2c2.8,5.2,10.3,5.2,13,0c1.8-3.4,0.8-7.3-2.4-9.6C219,84.4,215.3,84.4,212.9,86z"/><path fill="#000000" d="M152,86.6c-11.8,1.6-23.6,8.4-31.1,17.8c-10.2,12.8-13.4,30.3-8.2,45.6c6.1,18.1,22.5,31,41.2,32.8c20.7,1.9,39.6-8.9,48.6-27.7c6.8-14.5,5.9-31.5-2.5-45.6c-3.2-5.4-10.7-12.9-16.1-16.1c-5-3-11.4-5.4-16.9-6.4C163.2,86.3,155.5,86.1,152,86.6z M168.5,100.1c5.9,1.7,10.8,4.5,15.3,8.9c4.3,4.2,7.1,8.8,9,14.3c1.7,5.1,2.2,14,1,19.3c-3.1,13.1-13.8,23.8-27,27.1c-3.8,1-13.1,0.9-17-0.2c-15.2-4-26.1-17.2-27-32.9c-0.7-10.9,3.3-20.6,11.5-28.4C143.7,99.7,156,96.6,168.5,100.1z"/></g></g></g>
</svg>